<?xml version="1.0" encoding="UTF-8" standalone="no"?>
<!DOCTYPE svg PUBLIC "-//W3C//DTD SVG 1.1//EN"
 "http://www.w3.org/Graphics/SVG/1.1/DTD/svg11.dtd">
<!-- Generated by graphviz version 2.40.1 (20161225.0304)
 -->
<!-- Title: dependencies Pages: 1 -->
<svg width="4002pt" height="284pt"
 viewBox="0.00 0.00 4002.00 284.00" xmlns="http://www.w3.org/2000/svg" xmlns:xlink="http://www.w3.org/1999/xlink">
<g id="graph0" class="graph" transform="scale(1 1) rotate(0) translate(4 280)">
<title>dependencies</title>
<polygon fill="#ffffff" stroke="transparent" points="-4,4 -4,-280 3998,-280 3998,4 -4,4"/>
<text text-anchor="start" x="1976.0091" y="-42.4" font-family="sans-serif" font-weight="bold" font-size="14.00" fill="#000000">Legend</text>
<polygon fill="#ffffb3" stroke="transparent" points="1763,-10 1763,-30 1783,-30 1783,-10 1763,-10"/>
<text text-anchor="start" x="1786.629" y="-15.4" font-family="sans-serif" font-size="14.00" fill="#000000"> &#160;Declarations</text>
<polygon fill="#8dd3c7" stroke="transparent" points="1876,-10 1876,-30 1896,-30 1896,-10 1876,-10"/>
<text text-anchor="start" x="1899.7251" y="-15.4" font-family="sans-serif" font-size="14.00" fill="#000000"> &#160;Module</text>
<polygon fill="#80b1d3" stroke="transparent" points="1962,-10 1962,-30 1982,-30 1982,-10 1962,-10"/>
<text text-anchor="start" x="1985.7812" y="-15.4" font-family="sans-serif" font-size="14.00" fill="#000000"> &#160;Bootstrap</text>
<polygon fill="#fdb462" stroke="transparent" points="2059,-10 2059,-30 2079,-30 2079,-10 2059,-10"/>
<text text-anchor="start" x="2082.6732" y="-15.4" font-family="sans-serif" font-size="14.00" fill="#000000"> &#160;Providers</text>
<polygon fill="#fb8072" stroke="transparent" points="2155,-10 2155,-30 2175,-30 2175,-10 2155,-10"/>
<text text-anchor="start" x="2178.7258" y="-15.4" font-family="sans-serif" font-size="14.00" fill="#000000"> &#160;Exports</text>
<g id="clust1" class="cluster">
<title>cluster_SharedModule</title>
<polygon fill="none" stroke="#000000" stroke-dasharray="1,5" points="8,-70 8,-268 3986,-268 3986,-70 8,-70"/>
</g>
<g id="clust2" class="cluster">
<title>cluster_SharedModule_declarations</title>
<polygon fill="none" stroke="#000000" points="862,-78 862,-130 3978,-130 3978,-78 862,-78"/>
</g>
<g id="clust25" class="cluster">
<title>cluster_SharedModule_exports</title>
<polygon fill="none" stroke="#000000" points="553,-208 553,-260 3487,-260 3487,-208 553,-208"/>
</g>
<g id="clust27" class="cluster">
<title>cluster_SharedModule_providers</title>
<polygon fill="none" stroke="#000000" points="16,-78 16,-130 854,-130 854,-78 16,-78"/>
</g>
<!-- CapitalizePipe -->
<g id="node1" class="node">
<title>CapitalizePipe</title>
<polygon fill="#ffffb3" stroke="#000000" points="3969.6458,-122 3872.3542,-122 3872.3542,-86 3969.6458,-86 3969.6458,-122"/>
<text text-anchor="middle" x="3921" y="-99.8" font-family="Times,serif" font-size="14.00" fill="#000000">CapitalizePipe</text>
</g>
<!-- SharedModule -->
<g id="node22" class="node">
<title>SharedModule</title>
<polygon fill="#8dd3c7" stroke="#000000" points="2065.4231,-187 2062.4231,-191 2041.4231,-191 2038.4231,-187 1966.5769,-187 1966.5769,-151 2065.4231,-151 2065.4231,-187"/>
<text text-anchor="middle" x="2016" y="-164.8" font-family="Times,serif" font-size="14.00" fill="#000000">SharedModule</text>
</g>
<!-- CapitalizePipe&#45;&gt;SharedModule -->
<g id="edge1" class="edge">
<title>CapitalizePipe&#45;&gt;SharedModule</title>
<path fill="none" stroke="#000000" d="M3921,-122.308C3921,-142.1455 3921,-171 3921,-171 3921,-171 2075.4886,-171 2075.4886,-171"/>
<polygon fill="#000000" stroke="#000000" points="2075.4887,-167.5001 2065.4886,-171 2075.4886,-174.5001 2075.4887,-167.5001"/>
</g>
<!-- KeyValuePipe -->
<g id="node2" class="node">
<title>KeyValuePipe</title>
<polygon fill="#ffffb3" stroke="#000000" points="3853.6361,-122 3756.3639,-122 3756.3639,-86 3853.6361,-86 3853.6361,-122"/>
<text text-anchor="middle" x="3805" y="-99.8" font-family="Times,serif" font-size="14.00" fill="#000000">KeyValuePipe</text>
</g>
<!-- KeyValuePipe&#45;&gt;SharedModule -->
<g id="edge2" class="edge">
<title>KeyValuePipe&#45;&gt;SharedModule</title>
<path fill="none" stroke="#000000" d="M3805,-122.1061C3805,-141.3391 3805,-169 3805,-169 3805,-169 2075.2462,-169 2075.2462,-169"/>
<polygon fill="#000000" stroke="#000000" points="2075.2463,-165.5001 2065.2462,-169 2075.2462,-172.5001 2075.2463,-165.5001"/>
</g>
<!-- SearchfilterPipe -->
<g id="node3" class="node">
<title>SearchfilterPipe</title>
<polygon fill="#ffffb3" stroke="#000000" points="3738.1826,-122 3631.8174,-122 3631.8174,-86 3738.1826,-86 3738.1826,-122"/>
<text text-anchor="middle" x="3685" y="-99.8" font-family="Times,serif" font-size="14.00" fill="#000000">SearchfilterPipe</text>
</g>
<!-- SearchfilterPipe&#45;&gt;SharedModule -->
<g id="edge3" class="edge">
<title>SearchfilterPipe&#45;&gt;SharedModule</title>
<path fill="none" stroke="#000000" d="M3685,-122.1686C3685,-141.0898 3685,-168 3685,-168 3685,-168 2075.497,-168 2075.497,-168"/>
<polygon fill="#000000" stroke="#000000" points="2075.4971,-164.5001 2065.497,-168 2075.497,-171.5001 2075.4971,-164.5001"/>
</g>
<!-- TriStateButtonComponent -->
<g id="node4" class="node">
<title>TriStateButtonComponent</title>
<polygon fill="#ffffb3" stroke="#000000" points="3614.0476,-122 3449.9524,-122 3449.9524,-86 3614.0476,-86 3614.0476,-122"/>
<text text-anchor="middle" x="3532" y="-99.8" font-family="Times,serif" font-size="14.00" fill="#000000">TriStateButtonComponent</text>
</g>
<!-- TriStateButtonComponent&#45;&gt;SharedModule -->
<g id="edge4" class="edge">
<title>TriStateButtonComponent&#45;&gt;SharedModule</title>
<path fill="none" stroke="#000000" d="M3464.2288,-122.2667C3464.2288,-140.5552 3464.2288,-166 3464.2288,-166 3464.2288,-166 2075.4324,-166 2075.4324,-166"/>
<polygon fill="#000000" stroke="#000000" points="2075.4324,-162.5001 2065.4324,-166 2075.4323,-169.5001 2075.4324,-162.5001"/>
</g>
<!-- TriStateCheckboxComponent -->
<g id="node5" class="node">
<title>TriStateCheckboxComponent</title>
<polygon fill="#ffffb3" stroke="#000000" points="3431.6951,-122 3248.3049,-122 3248.3049,-86 3431.6951,-86 3431.6951,-122"/>
<text text-anchor="middle" x="3340" y="-99.8" font-family="Times,serif" font-size="14.00" fill="#000000">TriStateCheckboxComponent</text>
</g>
<!-- TriStateCheckboxComponent&#45;&gt;SharedModule -->
<g id="edge5" class="edge">
<title>TriStateCheckboxComponent&#45;&gt;SharedModule</title>
<path fill="none" stroke="#000000" d="M3281.9876,-122.302C3281.9876,-140.2699 3281.9876,-165 3281.9876,-165 3281.9876,-165 2075.2397,-165 2075.2397,-165"/>
<polygon fill="#000000" stroke="#000000" points="2075.2397,-161.5001 2065.2397,-165 2075.2396,-168.5001 2075.2397,-161.5001"/>
</g>
<!-- MasterCheckboxComponent -->
<g id="node6" class="node">
<title>MasterCheckboxComponent</title>
<polygon fill="#ffffb3" stroke="#000000" points="3230.4678,-122 3053.5322,-122 3053.5322,-86 3230.4678,-86 3230.4678,-122"/>
<text text-anchor="middle" x="3142" y="-99.8" font-family="Times,serif" font-size="14.00" fill="#000000">MasterCheckboxComponent</text>
</g>
<!-- MasterCheckboxComponent&#45;&gt;SharedModule -->
<g id="edge6" class="edge">
<title>MasterCheckboxComponent&#45;&gt;SharedModule</title>
<path fill="none" stroke="#000000" d="M3124.8698,-122.0225C3124.8698,-139.3734 3124.8698,-163 3124.8698,-163 3124.8698,-163 2075.4382,-163 2075.4382,-163"/>
<polygon fill="#000000" stroke="#000000" points="2075.4382,-159.5001 2065.4382,-163 2075.4382,-166.5001 2075.4382,-159.5001"/>
</g>
<!-- SortComponent -->
<g id="node7" class="node">
<title>SortComponent</title>
<polygon fill="#ffffb3" stroke="#000000" points="3035.1667,-122 2930.8333,-122 2930.8333,-86 3035.1667,-86 3035.1667,-122"/>
<text text-anchor="middle" x="2983" y="-99.8" font-family="Times,serif" font-size="14.00" fill="#000000">SortComponent</text>
</g>
<!-- SortComponent&#45;&gt;SharedModule -->
<g id="edge7" class="edge">
<title>SortComponent&#45;&gt;SharedModule</title>
<path fill="none" stroke="#000000" d="M2978.3922,-122.0352C2978.3922,-138.7344 2978.3922,-161 2978.3922,-161 2978.3922,-161 2075.3815,-161 2075.3815,-161"/>
<polygon fill="#000000" stroke="#000000" points="2075.3816,-157.5001 2065.3815,-161 2075.3815,-164.5001 2075.3816,-157.5001"/>
</g>
<!-- ClickOutsideDirective -->
<g id="node8" class="node">
<title>ClickOutsideDirective</title>
<polygon fill="#ffffb3" stroke="#000000" points="2912.9622,-122 2771.0378,-122 2771.0378,-86 2912.9622,-86 2912.9622,-122"/>
<text text-anchor="middle" x="2842" y="-99.8" font-family="Times,serif" font-size="14.00" fill="#000000">ClickOutsideDirective</text>
</g>
<!-- ClickOutsideDirective&#45;&gt;SharedModule -->
<g id="edge8" class="edge">
<title>ClickOutsideDirective&#45;&gt;SharedModule</title>
<path fill="none" stroke="#000000" d="M2816.2933,-122.027C2816.2933,-138.3976 2816.2933,-160 2816.2933,-160 2816.2933,-160 2075.458,-160 2075.458,-160"/>
<polygon fill="#000000" stroke="#000000" points="2075.458,-156.5001 2065.458,-160 2075.4579,-163.5001 2075.458,-156.5001"/>
</g>
<!-- PropertyTableComponent -->
<g id="node9" class="node">
<title>PropertyTableComponent</title>
<polygon fill="#ffffb3" stroke="#000000" points="2752.9143,-122 2591.0857,-122 2591.0857,-86 2752.9143,-86 2752.9143,-122"/>
<text text-anchor="middle" x="2672" y="-99.8" font-family="Times,serif" font-size="14.00" fill="#000000">PropertyTableComponent</text>
</g>
<!-- PropertyTableComponent&#45;&gt;SharedModule -->
<g id="edge9" class="edge">
<title>PropertyTableComponent&#45;&gt;SharedModule</title>
<path fill="none" stroke="#000000" d="M2603.5672,-122.2819C2603.5672,-137.9478 2603.5672,-158 2603.5672,-158 2603.5672,-158 2075.3369,-158 2075.3369,-158"/>
<polygon fill="#000000" stroke="#000000" points="2075.3369,-154.5001 2065.3369,-158 2075.3368,-161.5001 2075.3369,-154.5001"/>
</g>
<!-- TabsComponent -->
<g id="node10" class="node">
<title>TabsComponent</title>
<polygon fill="#ffffb3" stroke="#000000" points="2573.0452,-122 2464.9548,-122 2464.9548,-86 2573.0452,-86 2573.0452,-122"/>
<text text-anchor="middle" x="2519" y="-99.8" font-family="Times,serif" font-size="14.00" fill="#000000">TabsComponent</text>
</g>
<!-- TabsComponent&#45;&gt;SharedModule -->
<g id="edge10" class="edge">
<title>TabsComponent&#45;&gt;SharedModule</title>
<path fill="none" stroke="#000000" d="M2476.5377,-122.1871C2476.5377,-137.1824 2476.5377,-156 2476.5377,-156 2476.5377,-156 2075.2856,-156 2075.2856,-156"/>
<polygon fill="#000000" stroke="#000000" points="2075.2856,-152.5001 2065.2856,-156 2075.2856,-159.5001 2075.2856,-152.5001"/>
</g>
<!-- TabComponent -->
<g id="node11" class="node">
<title>TabComponent</title>
<polygon fill="#ffffb3" stroke="#000000" points="2446.5996,-122 2343.4004,-122 2343.4004,-86 2446.5996,-86 2446.5996,-122"/>
<text text-anchor="middle" x="2395" y="-99.8" font-family="Times,serif" font-size="14.00" fill="#000000">TabComponent</text>
</g>
<!-- TabComponent&#45;&gt;SharedModule -->
<g id="edge11" class="edge">
<title>TabComponent&#45;&gt;SharedModule</title>
<path fill="none" stroke="#000000" d="M2395,-122.1243C2395,-136.7832 2395,-155 2395,-155 2395,-155 2075.5476,-155 2075.5476,-155"/>
<polygon fill="#000000" stroke="#000000" points="2075.5477,-151.5001 2065.5476,-155 2075.5476,-158.5001 2075.5477,-151.5001"/>
</g>
<!-- DataflowDateTimePipe -->
<g id="node12" class="node">
<title>DataflowDateTimePipe</title>
<polygon fill="#ffffb3" stroke="#000000" points="2325.4468,-122 2176.5532,-122 2176.5532,-86 2325.4468,-86 2325.4468,-122"/>
<text text-anchor="middle" x="2251" y="-99.8" font-family="Times,serif" font-size="14.00" fill="#000000">DataflowDateTimePipe</text>
</g>
<!-- DataflowDateTimePipe&#45;&gt;SharedModule -->
<g id="edge12" class="edge">
<title>DataflowDateTimePipe&#45;&gt;SharedModule</title>
<path fill="none" stroke="#000000" d="M2230.2751,-122.2458C2230.2751,-136.1772 2230.2751,-153 2230.2751,-153 2230.2751,-153 2075.4281,-153 2075.4281,-153"/>
<polygon fill="#000000" stroke="#000000" points="2075.4281,-149.5001 2065.4281,-153 2075.428,-156.5001 2075.4281,-149.5001"/>
</g>
<!-- DataflowDurationPipe -->
<g id="node13" class="node">
<title>DataflowDurationPipe</title>
<polygon fill="#ffffb3" stroke="#000000" points="2158.2352,-122 2015.7648,-122 2015.7648,-86 2158.2352,-86 2158.2352,-122"/>
<text text-anchor="middle" x="2087" y="-99.8" font-family="Times,serif" font-size="14.00" fill="#000000">DataflowDurationPipe</text>
</g>
<!-- DataflowDurationPipe&#45;&gt;SharedModule -->
<g id="edge13" class="edge">
<title>DataflowDurationPipe&#45;&gt;SharedModule</title>
<path fill="none" stroke="#000000" d="M2040.4218,-122.1061C2040.4218,-122.1061 2040.4218,-140.991 2040.4218,-140.991"/>
<polygon fill="#000000" stroke="#000000" points="2036.9219,-140.9909 2040.4218,-150.991 2043.9219,-140.991 2036.9219,-140.9909"/>
</g>
<!-- MapValuesPipe -->
<g id="node14" class="node">
<title>MapValuesPipe</title>
<polygon fill="#ffffb3" stroke="#000000" points="1997.9188,-122 1892.0812,-122 1892.0812,-86 1997.9188,-86 1997.9188,-122"/>
<text text-anchor="middle" x="1945" y="-99.8" font-family="Times,serif" font-size="14.00" fill="#000000">MapValuesPipe</text>
</g>
<!-- MapValuesPipe&#45;&gt;SharedModule -->
<g id="edge14" class="edge">
<title>MapValuesPipe&#45;&gt;SharedModule</title>
<path fill="none" stroke="#000000" d="M1982.249,-122.1061C1982.249,-122.1061 1982.249,-140.991 1982.249,-140.991"/>
<polygon fill="#000000" stroke="#000000" points="1978.749,-140.9909 1982.249,-150.991 1985.749,-140.991 1978.749,-140.9909"/>
</g>
<!-- DecorationComponent -->
<g id="node15" class="node">
<title>DecorationComponent</title>
<polygon fill="#ffffb3" stroke="#000000" points="1874.5254,-122 1731.4746,-122 1731.4746,-86 1874.5254,-86 1874.5254,-122"/>
<text text-anchor="middle" x="1803" y="-99.8" font-family="Times,serif" font-size="14.00" fill="#000000">DecorationComponent</text>
</g>
<!-- DecorationComponent&#45;&gt;SharedModule -->
<g id="edge15" class="edge">
<title>DecorationComponent&#45;&gt;SharedModule</title>
<path fill="none" stroke="#000000" d="M1821.625,-122.2458C1821.625,-136.1772 1821.625,-153 1821.625,-153 1821.625,-153 1956.6997,-153 1956.6997,-153"/>
<polygon fill="#000000" stroke="#000000" points="1956.6997,-156.5001 1966.6997,-153 1956.6997,-149.5001 1956.6997,-156.5001"/>
</g>
<!-- HandleComponent -->
<g id="node16" class="node">
<title>HandleComponent</title>
<polygon fill="#ffffb3" stroke="#000000" points="1712.759,-122 1591.241,-122 1591.241,-86 1712.759,-86 1712.759,-122"/>
<text text-anchor="middle" x="1652" y="-99.8" font-family="Times,serif" font-size="14.00" fill="#000000">HandleComponent</text>
</g>
<!-- HandleComponent&#45;&gt;SharedModule -->
<g id="edge16" class="edge">
<title>HandleComponent&#45;&gt;SharedModule</title>
<path fill="none" stroke="#000000" d="M1652,-122.1243C1652,-136.7832 1652,-155 1652,-155 1652,-155 1956.5305,-155 1956.5305,-155"/>
<polygon fill="#000000" stroke="#000000" points="1956.5306,-158.5001 1966.5305,-155 1956.5305,-151.5001 1956.5306,-158.5001"/>
</g>
<!-- PropertiesDialogComponent -->
<g id="node17" class="node">
<title>PropertiesDialogComponent</title>
<polygon fill="#ffffb3" stroke="#000000" points="1573.1937,-122 1396.8063,-122 1396.8063,-86 1573.1937,-86 1573.1937,-122"/>
<text text-anchor="middle" x="1485" y="-99.8" font-family="Times,serif" font-size="14.00" fill="#000000">PropertiesDialogComponent</text>
</g>
<!-- PropertiesDialogComponent&#45;&gt;SharedModule -->
<g id="edge17" class="edge">
<title>PropertiesDialogComponent&#45;&gt;SharedModule</title>
<path fill="none" stroke="#000000" d="M1560.9246,-122.1871C1560.9246,-137.1824 1560.9246,-156 1560.9246,-156 1560.9246,-156 1956.4327,-156 1956.4327,-156"/>
<polygon fill="#000000" stroke="#000000" points="1956.4327,-159.5001 1966.4327,-156 1956.4326,-152.5001 1956.4327,-159.5001"/>
</g>
<!-- GraphViewComponent -->
<g id="node18" class="node">
<title>GraphViewComponent</title>
<polygon fill="#ffffb3" stroke="#000000" points="1379.1331,-122 1232.8669,-122 1232.8669,-86 1379.1331,-86 1379.1331,-122"/>
<text text-anchor="middle" x="1306" y="-99.8" font-family="Times,serif" font-size="14.00" fill="#000000">GraphViewComponent</text>
</g>
<!-- GraphViewComponent&#45;&gt;SharedModule -->
<g id="edge18" class="edge">
<title>GraphViewComponent&#45;&gt;SharedModule</title>
<path fill="none" stroke="#000000" d="M1339.8434,-122.2819C1339.8434,-137.9478 1339.8434,-158 1339.8434,-158 1339.8434,-158 1956.5545,-158 1956.5545,-158"/>
<polygon fill="#000000" stroke="#000000" points="1956.5546,-161.5001 1966.5545,-158 1956.5545,-154.5001 1956.5546,-161.5001"/>
</g>
<!-- TruncatePipe -->
<g id="node19" class="node">
<title>TruncatePipe</title>
<polygon fill="#ffffb3" stroke="#000000" points="1214.1361,-122 1123.8639,-122 1123.8639,-86 1214.1361,-86 1214.1361,-122"/>
<text text-anchor="middle" x="1169" y="-99.8" font-family="Times,serif" font-size="14.00" fill="#000000">TruncatePipe</text>
</g>
<!-- TruncatePipe&#45;&gt;SharedModule -->
<g id="edge19" class="edge">
<title>TruncatePipe&#45;&gt;SharedModule</title>
<path fill="none" stroke="#000000" d="M1169,-122.027C1169,-138.3976 1169,-160 1169,-160 1169,-160 1956.49,-160 1956.49,-160"/>
<polygon fill="#000000" stroke="#000000" points="1956.49,-163.5001 1966.49,-160 1956.4899,-156.5001 1956.49,-163.5001"/>
</g>
<!-- OrderByPipe -->
<g id="node20" class="node">
<title>OrderByPipe</title>
<polygon fill="#ffffb3" stroke="#000000" points="1105.8669,-122 1016.1331,-122 1016.1331,-86 1105.8669,-86 1105.8669,-122"/>
<text text-anchor="middle" x="1061" y="-99.8" font-family="Times,serif" font-size="14.00" fill="#000000">OrderByPipe</text>
</g>
<!-- OrderByPipe&#45;&gt;SharedModule -->
<g id="edge20" class="edge">
<title>OrderByPipe&#45;&gt;SharedModule</title>
<path fill="none" stroke="#000000" d="M1094.1098,-122.0352C1094.1098,-138.7344 1094.1098,-161 1094.1098,-161 1094.1098,-161 1956.7611,-161 1956.7611,-161"/>
<polygon fill="#000000" stroke="#000000" points="1956.7611,-164.5001 1966.7611,-161 1956.7611,-157.5001 1956.7611,-164.5001"/>
</g>
<!-- ConfirmComponent -->
<g id="node21" class="node">
<title>ConfirmComponent</title>
<polygon fill="#ffffb3" stroke="#000000" points="998.2716,-122 869.7284,-122 869.7284,-86 998.2716,-86 998.2716,-122"/>
<text text-anchor="middle" x="934" y="-99.8" font-family="Times,serif" font-size="14.00" fill="#000000">ConfirmComponent</text>
</g>
<!-- ConfirmComponent&#45;&gt;SharedModule -->
<g id="edge21" class="edge">
<title>ConfirmComponent&#45;&gt;SharedModule</title>
<path fill="none" stroke="#000000" d="M966.6597,-122.0225C966.6597,-139.3734 966.6597,-163 966.6597,-163 966.6597,-163 1956.4454,-163 1956.4454,-163"/>
<polygon fill="#000000" stroke="#000000" points="1956.4454,-166.5001 1966.4454,-163 1956.4453,-159.5001 1956.4454,-166.5001"/>
</g>
<!-- ClickOutsideDirective  -->
<g id="node23" class="node">
<title>ClickOutsideDirective </title>
<polygon fill="#fb8072" stroke="#000000" points="3478.9629,-252 3333.0371,-252 3333.0371,-216 3478.9629,-216 3478.9629,-252"/>
<text text-anchor="middle" x="3406" y="-229.8" font-family="Times,serif" font-size="14.00" fill="#000000">ClickOutsideDirective </text>
</g>
<!-- SharedModule&#45;&gt;ClickOutsideDirective  -->
<g id="edge22" class="edge">
<title>SharedModule&#45;&gt;ClickOutsideDirective </title>
<path fill="none" stroke="#000000" stroke-dasharray="5,2" d="M2065.4393,-173C2310.4128,-173 3382.4332,-173 3382.4332,-173 3382.4332,-173 3382.4332,-205.698 3382.4332,-205.698"/>
<polygon fill="#000000" stroke="#000000" points="3378.9333,-205.698 3382.4332,-215.698 3385.9333,-205.698 3378.9333,-205.698"/>
</g>
<!-- CapitalizePipe  -->
<g id="node24" class="node">
<title>CapitalizePipe </title>
<polygon fill="#fb8072" stroke="#000000" points="3315.6453,-252 3214.3547,-252 3214.3547,-216 3315.6453,-216 3315.6453,-252"/>
<text text-anchor="middle" x="3265" y="-229.8" font-family="Times,serif" font-size="14.00" fill="#000000">CapitalizePipe </text>
</g>
<!-- SharedModule&#45;&gt;CapitalizePipe  -->
<g id="edge23" class="edge">
<title>SharedModule&#45;&gt;CapitalizePipe </title>
<path fill="none" stroke="#000000" stroke-dasharray="5,2" d="M2065.5437,-174C2292.5672,-174 3222.4557,-174 3222.4557,-174 3222.4557,-174 3222.4557,-205.998 3222.4557,-205.998"/>
<polygon fill="#000000" stroke="#000000" points="3218.9557,-205.998 3222.4557,-215.998 3225.9557,-205.9981 3218.9557,-205.998"/>
</g>
<!-- DataflowDateTimePipe  -->
<g id="node25" class="node">
<title>DataflowDateTimePipe </title>
<polygon fill="#fb8072" stroke="#000000" points="3196.4475,-252 3043.5525,-252 3043.5525,-216 3196.4475,-216 3196.4475,-252"/>
<text text-anchor="middle" x="3120" y="-229.8" font-family="Times,serif" font-size="14.00" fill="#000000">DataflowDateTimePipe </text>
</g>
<!-- SharedModule&#45;&gt;DataflowDateTimePipe  -->
<g id="edge24" class="edge">
<title>SharedModule&#45;&gt;DataflowDateTimePipe </title>
<path fill="none" stroke="#000000" stroke-dasharray="5,2" d="M2065.4588,-176C2271.2069,-176 3048.6464,-176 3048.6464,-176 3048.6464,-176 3048.6464,-205.9664 3048.6464,-205.9664"/>
<polygon fill="#000000" stroke="#000000" points="3045.1464,-205.9663 3048.6464,-215.9664 3052.1464,-205.9664 3045.1464,-205.9663"/>
</g>
<!-- DataflowDurationPipe  -->
<g id="node26" class="node">
<title>DataflowDurationPipe </title>
<polygon fill="#fb8072" stroke="#000000" points="3026.2352,-252 2879.7648,-252 2879.7648,-216 3026.2352,-216 3026.2352,-252"/>
<text text-anchor="middle" x="2953" y="-229.8" font-family="Times,serif" font-size="14.00" fill="#000000">DataflowDurationPipe </text>
</g>
<!-- SharedModule&#45;&gt;DataflowDurationPipe  -->
<g id="edge25" class="edge">
<title>SharedModule&#45;&gt;DataflowDurationPipe </title>
<path fill="none" stroke="#000000" stroke-dasharray="5,2" d="M2065.2224,-178C2250.6363,-178 2896.4318,-178 2896.4318,-178 2896.4318,-178 2896.4318,-205.973 2896.4318,-205.973"/>
<polygon fill="#000000" stroke="#000000" points="2892.9319,-205.973 2896.4318,-215.973 2899.9319,-205.973 2892.9319,-205.973"/>
</g>
<!-- KeyValuePipe  -->
<g id="node27" class="node">
<title>KeyValuePipe </title>
<polygon fill="#fb8072" stroke="#000000" points="2861.6355,-252 2760.3645,-252 2760.3645,-216 2861.6355,-216 2861.6355,-252"/>
<text text-anchor="middle" x="2811" y="-229.8" font-family="Times,serif" font-size="14.00" fill="#000000">KeyValuePipe </text>
</g>
<!-- SharedModule&#45;&gt;KeyValuePipe  -->
<g id="edge26" class="edge">
<title>SharedModule&#45;&gt;KeyValuePipe </title>
<path fill="none" stroke="#000000" stroke-dasharray="5,2" d="M2065.4815,-179C2232.603,-179 2765.7256,-179 2765.7256,-179 2765.7256,-179 2765.7256,-205.9909 2765.7256,-205.9909"/>
<polygon fill="#000000" stroke="#000000" points="2762.2257,-205.9909 2765.7256,-215.9909 2769.2257,-205.991 2762.2257,-205.9909"/>
</g>
<!-- MapValuesPipe  -->
<g id="node28" class="node">
<title>MapValuesPipe </title>
<polygon fill="#fb8072" stroke="#000000" points="2742.418,-252 2633.582,-252 2633.582,-216 2742.418,-216 2742.418,-252"/>
<text text-anchor="middle" x="2688" y="-229.8" font-family="Times,serif" font-size="14.00" fill="#000000">MapValuesPipe </text>
</g>
<!-- SharedModule&#45;&gt;MapValuesPipe  -->
<g id="edge27" class="edge">
<title>SharedModule&#45;&gt;MapValuesPipe </title>
<path fill="none" stroke="#000000" stroke-dasharray="5,2" d="M2065.4138,-181C2220.6039,-181 2688,-181 2688,-181 2688,-181 2688,-205.7604 2688,-205.7604"/>
<polygon fill="#000000" stroke="#000000" points="2684.5001,-205.7604 2688,-215.7604 2691.5001,-205.7604 2684.5001,-205.7604"/>
</g>
<!-- SearchfilterPipe  -->
<g id="node29" class="node">
<title>SearchfilterPipe </title>
<polygon fill="#fb8072" stroke="#000000" points="2615.6829,-252 2506.3171,-252 2506.3171,-216 2615.6829,-216 2615.6829,-252"/>
<text text-anchor="middle" x="2561" y="-229.8" font-family="Times,serif" font-size="14.00" fill="#000000">SearchfilterPipe </text>
</g>
<!-- SharedModule&#45;&gt;SearchfilterPipe  -->
<g id="edge28" class="edge">
<title>SharedModule&#45;&gt;SearchfilterPipe </title>
<path fill="none" stroke="#000000" stroke-dasharray="5,2" d="M2065.2699,-183C2195.6416,-183 2539.7155,-183 2539.7155,-183 2539.7155,-183 2539.7155,-205.8757 2539.7155,-205.8757"/>
<polygon fill="#000000" stroke="#000000" points="2536.2155,-205.8757 2539.7155,-215.8757 2543.2155,-205.8757 2536.2155,-205.8757"/>
</g>
<!-- TriStateCheckboxComponent  -->
<g id="node30" class="node">
<title>TriStateCheckboxComponent </title>
<polygon fill="#fb8072" stroke="#000000" points="2488.1952,-252 2301.8048,-252 2301.8048,-216 2488.1952,-216 2488.1952,-252"/>
<text text-anchor="middle" x="2395" y="-229.8" font-family="Times,serif" font-size="14.00" fill="#000000">TriStateCheckboxComponent </text>
</g>
<!-- SharedModule&#45;&gt;TriStateCheckboxComponent  -->
<g id="edge29" class="edge">
<title>SharedModule&#45;&gt;TriStateCheckboxComponent </title>
<path fill="none" stroke="#000000" stroke-dasharray="5,2" d="M2065.4705,-184C2150.0838,-184 2313.563,-184 2313.563,-184 2313.563,-184 2313.563,-205.9489 2313.563,-205.9489"/>
<polygon fill="#000000" stroke="#000000" points="2310.063,-205.9488 2313.563,-215.9489 2317.063,-205.9489 2310.063,-205.9488"/>
</g>
<!-- TriStateButtonComponent  -->
<g id="node31" class="node">
<title>TriStateButtonComponent </title>
<polygon fill="#fb8072" stroke="#000000" points="2284.047,-252 2115.953,-252 2115.953,-216 2284.047,-216 2284.047,-252"/>
<text text-anchor="middle" x="2200" y="-229.8" font-family="Times,serif" font-size="14.00" fill="#000000">TriStateButtonComponent </text>
</g>
<!-- SharedModule&#45;&gt;TriStateButtonComponent  -->
<g id="edge30" class="edge">
<title>SharedModule&#45;&gt;TriStateButtonComponent </title>
<path fill="none" stroke="#000000" stroke-dasharray="5,2" d="M2065.2853,-186C2098.8324,-186 2137.172,-186 2137.172,-186 2137.172,-186 2137.172,-205.8533 2137.172,-205.8533"/>
<polygon fill="#000000" stroke="#000000" points="2133.6721,-205.8532 2137.172,-215.8533 2140.6721,-205.8533 2133.6721,-205.8532"/>
</g>
<!-- PropertyTableComponent  -->
<g id="node32" class="node">
<title>PropertyTableComponent </title>
<polygon fill="#fb8072" stroke="#000000" points="2098.4138,-252 1933.5862,-252 1933.5862,-216 2098.4138,-216 2098.4138,-252"/>
<text text-anchor="middle" x="2016" y="-229.8" font-family="Times,serif" font-size="14.00" fill="#000000">PropertyTableComponent </text>
</g>
<!-- SharedModule&#45;&gt;PropertyTableComponent  -->
<g id="edge31" class="edge">
<title>SharedModule&#45;&gt;PropertyTableComponent </title>
<path fill="none" stroke="#000000" stroke-dasharray="5,2" d="M2016,-187.1061C2016,-187.1061 2016,-205.991 2016,-205.991"/>
<polygon fill="#000000" stroke="#000000" points="2012.5001,-205.9909 2016,-215.991 2019.5001,-205.991 2012.5001,-205.9909"/>
</g>
<!-- DecorationComponent  -->
<g id="node33" class="node">
<title>DecorationComponent </title>
<polygon fill="#fb8072" stroke="#000000" points="1915.5246,-252 1768.4754,-252 1768.4754,-216 1915.5246,-216 1915.5246,-252"/>
<text text-anchor="middle" x="1842" y="-229.8" font-family="Times,serif" font-size="14.00" fill="#000000">DecorationComponent </text>
</g>
<!-- SharedModule&#45;&gt;DecorationComponent  -->
<g id="edge32" class="edge">
<title>SharedModule&#45;&gt;DecorationComponent </title>
<path fill="none" stroke="#000000" stroke-dasharray="5,2" d="M1966.5057,-186C1936.4761,-186 1903.9016,-186 1903.9016,-186 1903.9016,-186 1903.9016,-205.8533 1903.9016,-205.8533"/>
<polygon fill="#000000" stroke="#000000" points="1900.4017,-205.8532 1903.9016,-215.8533 1907.4017,-205.8533 1900.4017,-205.8532"/>
</g>
<!-- MasterCheckboxComponent  -->
<g id="node34" class="node">
<title>MasterCheckboxComponent </title>
<polygon fill="#fb8072" stroke="#000000" points="1750.4684,-252 1569.5316,-252 1569.5316,-216 1750.4684,-216 1750.4684,-252"/>
<text text-anchor="middle" x="1660" y="-229.8" font-family="Times,serif" font-size="14.00" fill="#000000">MasterCheckboxComponent </text>
</g>
<!-- SharedModule&#45;&gt;MasterCheckboxComponent  -->
<g id="edge33" class="edge">
<title>SharedModule&#45;&gt;MasterCheckboxComponent </title>
<path fill="none" stroke="#000000" stroke-dasharray="5,2" d="M1966.7883,-184C1887.6125,-184 1740.7358,-184 1740.7358,-184 1740.7358,-184 1740.7358,-205.9489 1740.7358,-205.9489"/>
<polygon fill="#000000" stroke="#000000" points="1737.2359,-205.9488 1740.7358,-215.9489 1744.2359,-205.9489 1737.2359,-205.9488"/>
</g>
<!-- SortComponent  -->
<g id="node35" class="node">
<title>SortComponent </title>
<polygon fill="#fb8072" stroke="#000000" points="1552.1663,-252 1443.8337,-252 1443.8337,-216 1552.1663,-216 1552.1663,-252"/>
<text text-anchor="middle" x="1498" y="-229.8" font-family="Times,serif" font-size="14.00" fill="#000000">SortComponent </text>
</g>
<!-- SharedModule&#45;&gt;SortComponent  -->
<g id="edge34" class="edge">
<title>SharedModule&#45;&gt;SortComponent </title>
<path fill="none" stroke="#000000" stroke-dasharray="5,2" d="M1966.332,-183C1836.6808,-183 1498,-183 1498,-183 1498,-183 1498,-205.8757 1498,-205.8757"/>
<polygon fill="#000000" stroke="#000000" points="1494.5001,-205.8757 1498,-215.8757 1501.5001,-205.8757 1494.5001,-205.8757"/>
</g>
<!-- HandleComponent  -->
<g id="node36" class="node">
<title>HandleComponent </title>
<polygon fill="#fb8072" stroke="#000000" points="1425.7591,-252 1300.2409,-252 1300.2409,-216 1425.7591,-216 1425.7591,-252"/>
<text text-anchor="middle" x="1363" y="-229.8" font-family="Times,serif" font-size="14.00" fill="#000000">HandleComponent </text>
</g>
<!-- SharedModule&#45;&gt;HandleComponent  -->
<g id="edge35" class="edge">
<title>SharedModule&#45;&gt;HandleComponent </title>
<path fill="none" stroke="#000000" stroke-dasharray="5,2" d="M1966.7685,-181C1822.5709,-181 1411.2663,-181 1411.2663,-181 1411.2663,-181 1411.2663,-205.7604 1411.2663,-205.7604"/>
<polygon fill="#000000" stroke="#000000" points="1407.7664,-205.7604 1411.2663,-215.7604 1414.7664,-205.7604 1407.7664,-205.7604"/>
</g>
<!-- PropertiesDialogComponent  -->
<g id="node37" class="node">
<title>PropertiesDialogComponent </title>
<polygon fill="#fb8072" stroke="#000000" points="1282.6939,-252 1103.3061,-252 1103.3061,-216 1282.6939,-216 1282.6939,-252"/>
<text text-anchor="middle" x="1193" y="-229.8" font-family="Times,serif" font-size="14.00" fill="#000000">PropertiesDialogComponent </text>
</g>
<!-- SharedModule&#45;&gt;PropertiesDialogComponent  -->
<g id="edge36" class="edge">
<title>SharedModule&#45;&gt;PropertiesDialogComponent </title>
<path fill="none" stroke="#000000" stroke-dasharray="5,2" d="M1966.5426,-179C1798.1882,-179 1257.7653,-179 1257.7653,-179 1257.7653,-179 1257.7653,-205.9909 1257.7653,-205.9909"/>
<polygon fill="#000000" stroke="#000000" points="1254.2653,-205.9909 1257.7653,-215.9909 1261.2653,-205.991 1254.2653,-205.9909"/>
</g>
<!-- GraphViewComponent  -->
<g id="node38" class="node">
<title>GraphViewComponent </title>
<polygon fill="#fb8072" stroke="#000000" points="1085.1327,-252 934.8673,-252 934.8673,-216 1085.1327,-216 1085.1327,-252"/>
<text text-anchor="middle" x="1010" y="-229.8" font-family="Times,serif" font-size="14.00" fill="#000000">GraphViewComponent </text>
</g>
<!-- SharedModule&#45;&gt;GraphViewComponent  -->
<g id="edge37" class="edge">
<title>SharedModule&#45;&gt;GraphViewComponent </title>
<path fill="none" stroke="#000000" stroke-dasharray="5,2" d="M1966.4624,-178C1769.2465,-178 1050.5665,-178 1050.5665,-178 1050.5665,-178 1050.5665,-205.973 1050.5665,-205.973"/>
<polygon fill="#000000" stroke="#000000" points="1047.0665,-205.973 1050.5665,-215.973 1054.0665,-205.973 1047.0665,-205.973"/>
</g>
<!-- TruncatePipe  -->
<g id="node39" class="node">
<title>TruncatePipe </title>
<polygon fill="#fb8072" stroke="#000000" points="917.1355,-252 822.8645,-252 822.8645,-216 917.1355,-216 917.1355,-252"/>
<text text-anchor="middle" x="870" y="-229.8" font-family="Times,serif" font-size="14.00" fill="#000000">TruncatePipe </text>
</g>
<!-- SharedModule&#45;&gt;TruncatePipe  -->
<g id="edge38" class="edge">
<title>SharedModule&#45;&gt;TruncatePipe </title>
<path fill="none" stroke="#000000" stroke-dasharray="5,2" d="M1966.6761,-176C1750.0013,-176 893.341,-176 893.341,-176 893.341,-176 893.341,-205.9664 893.341,-205.9664"/>
<polygon fill="#000000" stroke="#000000" points="889.8411,-205.9663 893.341,-215.9664 896.8411,-205.9664 889.8411,-205.9663"/>
</g>
<!-- OrderByPipe  -->
<g id="node40" class="node">
<title>OrderByPipe </title>
<polygon fill="#fb8072" stroke="#000000" points="804.8675,-252 711.1325,-252 711.1325,-216 804.8675,-216 804.8675,-252"/>
<text text-anchor="middle" x="758" y="-229.8" font-family="Times,serif" font-size="14.00" fill="#000000">OrderByPipe </text>
</g>
<!-- SharedModule&#45;&gt;OrderByPipe  -->
<g id="edge39" class="edge">
<title>SharedModule&#45;&gt;OrderByPipe </title>
<path fill="none" stroke="#000000" stroke-dasharray="5,2" d="M1966.6849,-174C1734.0989,-174 758,-174 758,-174 758,-174 758,-205.998 758,-205.998"/>
<polygon fill="#000000" stroke="#000000" points="754.5001,-205.998 758,-215.998 761.5001,-205.9981 754.5001,-205.998"/>
</g>
<!-- ConfirmComponent  -->
<g id="node41" class="node">
<title>ConfirmComponent </title>
<polygon fill="#fb8072" stroke="#000000" points="693.2717,-252 560.7283,-252 560.7283,-216 693.2717,-216 693.2717,-252"/>
<text text-anchor="middle" x="627" y="-229.8" font-family="Times,serif" font-size="14.00" fill="#000000">ConfirmComponent </text>
</g>
<!-- SharedModule&#45;&gt;ConfirmComponent  -->
<g id="edge40" class="edge">
<title>SharedModule&#45;&gt;ConfirmComponent </title>
<path fill="none" stroke="#000000" stroke-dasharray="5,2" d="M1966.5585,-173C1725.2197,-173 682.4732,-173 682.4732,-173 682.4732,-173 682.4732,-205.698 682.4732,-205.698"/>
<polygon fill="#000000" stroke="#000000" points="678.9733,-205.698 682.4732,-215.698 685.9733,-205.698 678.9733,-205.698"/>
</g>
<!-- SharedAppsService -->
<g id="node42" class="node">
<title>SharedAppsService</title>
<ellipse fill="#fdb462" stroke="#000000" cx="759" cy="-104" rx="87.3789" ry="18"/>
<text text-anchor="middle" x="759" y="-99.8" font-family="Times,serif" font-size="14.00" fill="#000000">SharedAppsService</text>
</g>
<!-- SharedAppsService&#45;&gt;SharedModule -->
<g id="edge41" class="edge">
<title>SharedAppsService&#45;&gt;SharedModule</title>
<path fill="none" stroke="#000000" d="M834.5608,-113.0008C834.5608,-129.9689 834.5608,-165 834.5608,-165 834.5608,-165 1956.7392,-165 1956.7392,-165"/>
<polygon fill="#000000" stroke="#000000" points="1956.7392,-168.5001 1966.7392,-165 1956.7391,-161.5001 1956.7392,-168.5001"/>
</g>
<!-- SharedAboutService -->
<g id="node43" class="node">
<title>SharedAboutService</title>
<ellipse fill="#fdb462" stroke="#000000" cx="563" cy="-104" rx="90.8916" ry="18"/>
<text text-anchor="middle" x="563" y="-99.8" font-family="Times,serif" font-size="14.00" fill="#000000">SharedAboutService</text>
</g>
<!-- SharedAboutService&#45;&gt;SharedModule -->
<g id="edge42" class="edge">
<title>SharedAboutService&#45;&gt;SharedModule</title>
<path fill="none" stroke="#000000" d="M607.405,-119.9665C607.405,-138.3367 607.405,-166 607.405,-166 607.405,-166 1956.6933,-166 1956.6933,-166"/>
<polygon fill="#000000" stroke="#000000" points="1956.6933,-169.5001 1966.6933,-166 1956.6933,-162.5001 1956.6933,-169.5001"/>
</g>
<!-- ParserService -->
<g id="node44" class="node">
<title>ParserService</title>
<ellipse fill="#fdb462" stroke="#000000" cx="390" cy="-104" rx="64.2378" ry="18"/>
<text text-anchor="middle" x="390" y="-99.8" font-family="Times,serif" font-size="14.00" fill="#000000">ParserService</text>
</g>
<!-- ParserService&#45;&gt;SharedModule -->
<g id="edge43" class="edge">
<title>ParserService&#45;&gt;SharedModule</title>
<path fill="none" stroke="#000000" d="M390,-122.1686C390,-141.0898 390,-168 390,-168 390,-168 1956.4492,-168 1956.4492,-168"/>
<polygon fill="#000000" stroke="#000000" points="1956.4493,-171.5001 1966.4492,-168 1956.4492,-164.5001 1956.4493,-171.5001"/>
</g>
<!-- ConfirmService -->
<g id="node45" class="node">
<title>ConfirmService</title>
<ellipse fill="#fdb462" stroke="#000000" cx="235" cy="-104" rx="72.9295" ry="18"/>
<text text-anchor="middle" x="235" y="-99.8" font-family="Times,serif" font-size="14.00" fill="#000000">ConfirmService</text>
</g>
<!-- ConfirmService&#45;&gt;SharedModule -->
<g id="edge44" class="edge">
<title>ConfirmService&#45;&gt;SharedModule</title>
<path fill="none" stroke="#000000" d="M235,-122.1061C235,-141.3391 235,-169 235,-169 235,-169 1956.507,-169 1956.507,-169"/>
<polygon fill="#000000" stroke="#000000" points="1956.5071,-172.5001 1966.507,-169 1956.507,-165.5001 1956.5071,-172.5001"/>
</g>
<!-- BusyService -->
<g id="node46" class="node">
<title>BusyService</title>
<ellipse fill="#fdb462" stroke="#000000" cx="84" cy="-104" rx="59.6897" ry="18"/>
<text text-anchor="middle" x="84" y="-99.8" font-family="Times,serif" font-size="14.00" fill="#000000">BusyService</text>
</g>
<!-- BusyService&#45;&gt;SharedModule -->
<g id="edge45" class="edge">
<title>BusyService&#45;&gt;SharedModule</title>
<path fill="none" stroke="#000000" d="M84,-122.308C84,-142.1455 84,-171 84,-171 84,-171 1956.3009,-171 1956.3009,-171"/>
<polygon fill="#000000" stroke="#000000" points="1956.301,-174.5001 1966.3009,-171 1956.3009,-167.5001 1956.301,-174.5001"/>
</g>
</g>
</svg>
