<?xml version="1.0" encoding="UTF-8" standalone="no"?>
<!DOCTYPE svg PUBLIC "-//W3C//DTD SVG 1.1//EN"
 "http://www.w3.org/Graphics/SVG/1.1/DTD/svg11.dtd">
<!-- Generated by graphviz version 2.40.1 (20161225.0304)
 -->
<!-- Title: dependencies Pages: 1 -->
<svg width="4860pt" height="211pt"
 viewBox="0.00 0.00 4860.00 211.00" xmlns="http://www.w3.org/2000/svg" xmlns:xlink="http://www.w3.org/1999/xlink">
<g id="graph0" class="graph" transform="scale(1 1) rotate(0) translate(4 207)">
<title>dependencies</title>
<polygon fill="#ffffff" stroke="transparent" points="-4,4 -4,-207 4856,-207 4856,4 -4,4"/>
<text text-anchor="start" x="2405.0091" y="-42.4" font-family="sans-serif" font-weight="bold" font-size="14.00" fill="#000000">Legend</text>
<polygon fill="#ffffb3" stroke="transparent" points="2192,-10 2192,-30 2212,-30 2212,-10 2192,-10"/>
<text text-anchor="start" x="2215.629" y="-15.4" font-family="sans-serif" font-size="14.00" fill="#000000"> &#160;Declarations</text>
<polygon fill="#8dd3c7" stroke="transparent" points="2305,-10 2305,-30 2325,-30 2325,-10 2305,-10"/>
<text text-anchor="start" x="2328.7251" y="-15.4" font-family="sans-serif" font-size="14.00" fill="#000000"> &#160;Module</text>
<polygon fill="#80b1d3" stroke="transparent" points="2391,-10 2391,-30 2411,-30 2411,-10 2391,-10"/>
<text text-anchor="start" x="2414.7812" y="-15.4" font-family="sans-serif" font-size="14.00" fill="#000000"> &#160;Bootstrap</text>
<polygon fill="#fdb462" stroke="transparent" points="2488,-10 2488,-30 2508,-30 2508,-10 2488,-10"/>
<text text-anchor="start" x="2511.6732" y="-15.4" font-family="sans-serif" font-size="14.00" fill="#000000"> &#160;Providers</text>
<polygon fill="#fb8072" stroke="transparent" points="2584,-10 2584,-30 2604,-30 2604,-10 2584,-10"/>
<text text-anchor="start" x="2607.7258" y="-15.4" font-family="sans-serif" font-size="14.00" fill="#000000"> &#160;Exports</text>
<g id="clust1" class="cluster">
<title>cluster_StreamsModule</title>
<polygon fill="none" stroke="#000000" stroke-dasharray="1,5" points="8,-70 8,-195 4844,-195 4844,-70 8,-70"/>
</g>
<g id="clust2" class="cluster">
<title>cluster_StreamsModule_declarations</title>
<polygon fill="none" stroke="#000000" points="1587,-78 1587,-130 4836,-130 4836,-78 1587,-78"/>
</g>
<g id="clust19" class="cluster">
<title>cluster_StreamsModule_imports</title>
<polygon fill="none" stroke="#000000" points="1084,-78 1084,-130 1579,-130 1579,-78 1084,-78"/>
</g>
<g id="clust22" class="cluster">
<title>cluster_StreamsModule_providers</title>
<polygon fill="none" stroke="#000000" points="16,-78 16,-130 1076,-130 1076,-78 16,-78"/>
</g>
<!-- StreamsComponent -->
<g id="node1" class="node">
<title>StreamsComponent</title>
<polygon fill="#ffffb3" stroke="#000000" points="4828.4313,-122 4701.5687,-122 4701.5687,-86 4828.4313,-86 4828.4313,-122"/>
<text text-anchor="middle" x="4765" y="-99.8" font-family="Times,serif" font-size="14.00" fill="#000000">StreamsComponent</text>
</g>
<!-- StreamsModule -->
<g id="node17" class="node">
<title>StreamsModule</title>
<polygon fill="#8dd3c7" stroke="#000000" points="2394.1486,-187 2391.1486,-191 2370.1486,-191 2367.1486,-187 2289.8514,-187 2289.8514,-151 2394.1486,-151 2394.1486,-187"/>
<text text-anchor="middle" x="2342" y="-164.8" font-family="Times,serif" font-size="14.00" fill="#000000">StreamsModule</text>
</g>
<!-- StreamsComponent&#45;&gt;StreamsModule -->
<g id="edge1" class="edge">
<title>StreamsComponent&#45;&gt;StreamsModule</title>
<path fill="none" stroke="#000000" d="M4765,-122.3802C4765,-146.2785 4765,-185 4765,-185 4765,-185 2404.2935,-185 2404.2935,-185"/>
<polygon fill="#000000" stroke="#000000" points="2404.2936,-181.5001 2394.2935,-185 2404.2935,-188.5001 2404.2936,-181.5001"/>
</g>
<!-- StreamCreateComponent -->
<g id="node2" class="node">
<title>StreamCreateComponent</title>
<polygon fill="#ffffb3" stroke="#000000" points="4683.5183,-122 4526.4817,-122 4526.4817,-86 4683.5183,-86 4683.5183,-122"/>
<text text-anchor="middle" x="4605" y="-99.8" font-family="Times,serif" font-size="14.00" fill="#000000">StreamCreateComponent</text>
</g>
<!-- StreamCreateComponent&#45;&gt;StreamsModule -->
<g id="edge2" class="edge">
<title>StreamCreateComponent&#45;&gt;StreamsModule</title>
<path fill="none" stroke="#000000" d="M4605,-122.0908C4605,-145.1328 4605,-182 4605,-182 4605,-182 2404.334,-182 2404.334,-182"/>
<polygon fill="#000000" stroke="#000000" points="2404.3341,-178.5001 2394.334,-182 2404.334,-185.5001 2404.3341,-178.5001"/>
</g>
<!-- StreamDefinitionsComponent -->
<g id="node3" class="node">
<title>StreamDefinitionsComponent</title>
<polygon fill="#ffffb3" stroke="#000000" points="4507.9748,-122 4324.0252,-122 4324.0252,-86 4507.9748,-86 4507.9748,-122"/>
<text text-anchor="middle" x="4416" y="-99.8" font-family="Times,serif" font-size="14.00" fill="#000000">StreamDefinitionsComponent</text>
</g>
<!-- StreamDefinitionsComponent&#45;&gt;StreamsModule -->
<g id="edge3" class="edge">
<title>StreamDefinitionsComponent&#45;&gt;StreamsModule</title>
<path fill="none" stroke="#000000" d="M4416,-122.1554C4416,-144.3519 4416,-179 4416,-179 4416,-179 2404.305,-179 2404.305,-179"/>
<polygon fill="#000000" stroke="#000000" points="2404.305,-175.5001 2394.305,-179 2404.305,-182.5001 2404.305,-175.5001"/>
</g>
<!-- StreamDetailsComponent -->
<g id="node4" class="node">
<title>StreamDetailsComponent</title>
<polygon fill="#ffffb3" stroke="#000000" points="4306.1386,-122 4145.8614,-122 4145.8614,-86 4306.1386,-86 4306.1386,-122"/>
<text text-anchor="middle" x="4226" y="-99.8" font-family="Times,serif" font-size="14.00" fill="#000000">StreamDetailsComponent</text>
</g>
<!-- StreamDetailsComponent&#45;&gt;StreamsModule -->
<g id="edge4" class="edge">
<title>StreamDetailsComponent&#45;&gt;StreamsModule</title>
<path fill="none" stroke="#000000" d="M4226,-122.1686C4226,-143.498 4226,-176 4226,-176 4226,-176 2404.3553,-176 2404.3553,-176"/>
<polygon fill="#000000" stroke="#000000" points="2404.3553,-172.5001 2394.3553,-176 2404.3552,-179.5001 2404.3553,-172.5001"/>
</g>
<!-- StreamDeployComponent -->
<g id="node5" class="node">
<title>StreamDeployComponent</title>
<polygon fill="#ffffb3" stroke="#000000" points="4128.1979,-122 3965.8021,-122 3965.8021,-86 4128.1979,-86 4128.1979,-122"/>
<text text-anchor="middle" x="4047" y="-99.8" font-family="Times,serif" font-size="14.00" fill="#000000">StreamDeployComponent</text>
</g>
<!-- StreamDeployComponent&#45;&gt;StreamsModule -->
<g id="edge5" class="edge">
<title>StreamDeployComponent&#45;&gt;StreamsModule</title>
<path fill="none" stroke="#000000" d="M4047,-122.0267C4047,-142.7672 4047,-174 4047,-174 4047,-174 2404.4266,-174 2404.4266,-174"/>
<polygon fill="#000000" stroke="#000000" points="2404.4266,-170.5001 2394.4266,-174 2404.4266,-177.5001 2404.4266,-170.5001"/>
</g>
<!-- StreamCreateDialogComponent -->
<g id="node6" class="node">
<title>StreamCreateDialogComponent</title>
<polygon fill="#ffffb3" stroke="#000000" points="3947.6204,-122 3752.3796,-122 3752.3796,-86 3947.6204,-86 3947.6204,-122"/>
<text text-anchor="middle" x="3850" y="-99.8" font-family="Times,serif" font-size="14.00" fill="#000000">StreamCreateDialogComponent</text>
</g>
<!-- StreamCreateDialogComponent&#45;&gt;StreamsModule -->
<g id="edge6" class="edge">
<title>StreamCreateDialogComponent&#45;&gt;StreamsModule</title>
<path fill="none" stroke="#000000" d="M3850,-122.308C3850,-142.1455 3850,-171 3850,-171 3850,-171 2404.3467,-171 2404.3467,-171"/>
<polygon fill="#000000" stroke="#000000" points="2404.3467,-167.5001 2394.3467,-171 2404.3467,-174.5001 2404.3467,-167.5001"/>
</g>
<!-- StreamPropertiesDialogComponent -->
<g id="node7" class="node">
<title>StreamPropertiesDialogComponent</title>
<polygon fill="#ffffb3" stroke="#000000" points="3733.8473,-122 3518.1527,-122 3518.1527,-86 3733.8473,-86 3733.8473,-122"/>
<text text-anchor="middle" x="3626" y="-99.8" font-family="Times,serif" font-size="14.00" fill="#000000">StreamPropertiesDialogComponent</text>
</g>
<!-- StreamPropertiesDialogComponent&#45;&gt;StreamsModule -->
<g id="edge7" class="edge">
<title>StreamPropertiesDialogComponent&#45;&gt;StreamsModule</title>
<path fill="none" stroke="#000000" d="M3626,-122.1686C3626,-141.0898 3626,-168 3626,-168 3626,-168 2404.3257,-168 2404.3257,-168"/>
<polygon fill="#000000" stroke="#000000" points="2404.3257,-164.5001 2394.3257,-168 2404.3256,-171.5001 2404.3257,-164.5001"/>
</g>
<!-- NodeComponent -->
<g id="node8" class="node">
<title>NodeComponent</title>
<polygon fill="#ffffb3" stroke="#000000" points="3499.6541,-122 3388.3459,-122 3388.3459,-86 3499.6541,-86 3499.6541,-122"/>
<text text-anchor="middle" x="3444" y="-99.8" font-family="Times,serif" font-size="14.00" fill="#000000">NodeComponent</text>
</g>
<!-- NodeComponent&#45;&gt;StreamsModule -->
<g id="edge8" class="edge">
<title>NodeComponent&#45;&gt;StreamsModule</title>
<path fill="none" stroke="#000000" d="M3444,-122.302C3444,-140.2699 3444,-165 3444,-165 3444,-165 2404.4104,-165 2404.4104,-165"/>
<polygon fill="#000000" stroke="#000000" points="2404.4104,-161.5001 2394.4104,-165 2404.4104,-168.5001 2404.4104,-161.5001"/>
</g>
<!-- StreamGraphDefinitionComponent -->
<g id="node9" class="node">
<title>StreamGraphDefinitionComponent</title>
<polygon fill="#ffffb3" stroke="#000000" points="3369.5126,-122 3156.4874,-122 3156.4874,-86 3369.5126,-86 3369.5126,-122"/>
<text text-anchor="middle" x="3263" y="-99.8" font-family="Times,serif" font-size="14.00" fill="#000000">StreamGraphDefinitionComponent</text>
</g>
<!-- StreamGraphDefinitionComponent&#45;&gt;StreamsModule -->
<g id="edge9" class="edge">
<title>StreamGraphDefinitionComponent&#45;&gt;StreamsModule</title>
<path fill="none" stroke="#000000" d="M3263,-122.0225C3263,-139.3734 3263,-163 3263,-163 3263,-163 2404.1558,-163 2404.1558,-163"/>
<polygon fill="#000000" stroke="#000000" points="2404.1558,-159.5001 2394.1558,-163 2404.1558,-166.5001 2404.1558,-159.5001"/>
</g>
<!-- InstanceDotComponent -->
<g id="node10" class="node">
<title>InstanceDotComponent</title>
<polygon fill="#ffffb3" stroke="#000000" points="3138.4692,-122 2989.5308,-122 2989.5308,-86 3138.4692,-86 3138.4692,-122"/>
<text text-anchor="middle" x="3064" y="-99.8" font-family="Times,serif" font-size="14.00" fill="#000000">InstanceDotComponent</text>
</g>
<!-- InstanceDotComponent&#45;&gt;StreamsModule -->
<g id="edge10" class="edge">
<title>InstanceDotComponent&#45;&gt;StreamsModule</title>
<path fill="none" stroke="#000000" d="M3064,-122.027C3064,-138.3976 3064,-160 3064,-160 3064,-160 2404.2149,-160 2404.2149,-160"/>
<polygon fill="#000000" stroke="#000000" points="2404.2149,-156.5001 2394.2149,-160 2404.2149,-163.5001 2404.2149,-156.5001"/>
</g>
<!-- MessageRateComponent -->
<g id="node11" class="node">
<title>MessageRateComponent</title>
<polygon fill="#ffffb3" stroke="#000000" points="2971.9664,-122 2816.0336,-122 2816.0336,-86 2971.9664,-86 2971.9664,-122"/>
<text text-anchor="middle" x="2894" y="-99.8" font-family="Times,serif" font-size="14.00" fill="#000000">MessageRateComponent</text>
</g>
<!-- MessageRateComponent&#45;&gt;StreamsModule -->
<g id="edge11" class="edge">
<title>MessageRateComponent&#45;&gt;StreamsModule</title>
<path fill="none" stroke="#000000" d="M2894,-122.2396C2894,-137.5706 2894,-157 2894,-157 2894,-157 2404.4285,-157 2404.4285,-157"/>
<polygon fill="#000000" stroke="#000000" points="2404.4285,-153.5001 2394.4285,-157 2404.4284,-160.5001 2404.4285,-153.5001"/>
</g>
<!-- DeploymentPropertiesComponent -->
<g id="node12" class="node">
<title>DeploymentPropertiesComponent</title>
<polygon fill="#ffffb3" stroke="#000000" points="2797.799,-122 2590.201,-122 2590.201,-86 2797.799,-86 2797.799,-122"/>
<text text-anchor="middle" x="2694" y="-99.8" font-family="Times,serif" font-size="14.00" fill="#000000">DeploymentPropertiesComponent</text>
</g>
<!-- DeploymentPropertiesComponent&#45;&gt;StreamsModule -->
<g id="edge12" class="edge">
<title>DeploymentPropertiesComponent&#45;&gt;StreamsModule</title>
<path fill="none" stroke="#000000" d="M2694,-122.0511C2694,-136.373 2694,-154 2694,-154 2694,-154 2404.3179,-154 2404.3179,-154"/>
<polygon fill="#000000" stroke="#000000" points="2404.3179,-150.5001 2394.3179,-154 2404.3178,-157.5001 2404.3179,-150.5001"/>
</g>
<!-- DeploymentPropertiesInfoComponent -->
<g id="node13" class="node">
<title>DeploymentPropertiesInfoComponent</title>
<polygon fill="#ffffb3" stroke="#000000" points="2572.1203,-122 2341.8797,-122 2341.8797,-86 2572.1203,-86 2572.1203,-122"/>
<text text-anchor="middle" x="2457" y="-99.8" font-family="Times,serif" font-size="14.00" fill="#000000">DeploymentPropertiesInfoComponent</text>
</g>
<!-- DeploymentPropertiesInfoComponent&#45;&gt;StreamsModule -->
<g id="edge13" class="edge">
<title>DeploymentPropertiesInfoComponent&#45;&gt;StreamsModule</title>
<path fill="none" stroke="#000000" d="M2368.007,-122.1061C2368.007,-122.1061 2368.007,-140.991 2368.007,-140.991"/>
<polygon fill="#000000" stroke="#000000" points="2364.5071,-140.9909 2368.007,-150.991 2371.5071,-140.991 2364.5071,-140.9909"/>
</g>
<!-- StreamDeployMultiComponent -->
<g id="node14" class="node">
<title>StreamDeployMultiComponent</title>
<polygon fill="#ffffb3" stroke="#000000" points="2323.8145,-122 2130.1855,-122 2130.1855,-86 2323.8145,-86 2323.8145,-122"/>
<text text-anchor="middle" x="2227" y="-99.8" font-family="Times,serif" font-size="14.00" fill="#000000">StreamDeployMultiComponent</text>
</g>
<!-- StreamDeployMultiComponent&#45;&gt;StreamsModule -->
<g id="edge14" class="edge">
<title>StreamDeployMultiComponent&#45;&gt;StreamsModule</title>
<path fill="none" stroke="#000000" d="M2306.6666,-122.1061C2306.6666,-122.1061 2306.6666,-140.991 2306.6666,-140.991"/>
<polygon fill="#000000" stroke="#000000" points="2303.1666,-140.9909 2306.6666,-150.991 2310.1666,-140.991 2303.1666,-140.9909"/>
</g>
<!-- StreamDeployAppPropertiesComponent -->
<g id="node15" class="node">
<title>StreamDeployAppPropertiesComponent</title>
<polygon fill="#ffffb3" stroke="#000000" points="2112.5632,-122 1869.4368,-122 1869.4368,-86 2112.5632,-86 2112.5632,-122"/>
<text text-anchor="middle" x="1991" y="-99.8" font-family="Times,serif" font-size="14.00" fill="#000000">StreamDeployAppPropertiesComponent</text>
</g>
<!-- StreamDeployAppPropertiesComponent&#45;&gt;StreamsModule -->
<g id="edge15" class="edge">
<title>StreamDeployAppPropertiesComponent&#45;&gt;StreamsModule</title>
<path fill="none" stroke="#000000" d="M1991,-122.0511C1991,-136.373 1991,-154 1991,-154 1991,-154 2279.8308,-154 2279.8308,-154"/>
<polygon fill="#000000" stroke="#000000" points="2279.8308,-157.5001 2289.8308,-154 2279.8307,-150.5001 2279.8308,-157.5001"/>
</g>
<!-- StreamDeployPropertiesDebugComponent -->
<g id="node16" class="node">
<title>StreamDeployPropertiesDebugComponent</title>
<polygon fill="#ffffb3" stroke="#000000" points="1851.278,-122 1594.722,-122 1594.722,-86 1851.278,-86 1851.278,-122"/>
<text text-anchor="middle" x="1723" y="-99.8" font-family="Times,serif" font-size="14.00" fill="#000000">StreamDeployPropertiesDebugComponent</text>
</g>
<!-- StreamDeployPropertiesDebugComponent&#45;&gt;StreamsModule -->
<g id="edge16" class="edge">
<title>StreamDeployPropertiesDebugComponent&#45;&gt;StreamsModule</title>
<path fill="none" stroke="#000000" d="M1723,-122.2396C1723,-137.5706 1723,-157 1723,-157 1723,-157 2279.7579,-157 2279.7579,-157"/>
<polygon fill="#000000" stroke="#000000" points="2279.7579,-160.5001 2289.7579,-157 2279.7579,-153.5001 2279.7579,-160.5001"/>
</g>
<!-- StreamsRoutingModule -->
<g id="node18" class="node">
<title>StreamsRoutingModule</title>
<polygon fill="#8dd3c7" stroke="#000000" points="1570.766,-122 1567.766,-126 1546.766,-126 1543.766,-122 1421.234,-122 1421.234,-86 1570.766,-86 1570.766,-122"/>
<text text-anchor="middle" x="1496" y="-99.8" font-family="Times,serif" font-size="14.00" fill="#000000">StreamsRoutingModule</text>
</g>
<!-- StreamsRoutingModule&#45;&gt;StreamsModule -->
<g id="edge17" class="edge">
<title>StreamsRoutingModule&#45;&gt;StreamsModule</title>
<path fill="none" stroke="#000000" d="M1496,-122.027C1496,-138.3976 1496,-160 1496,-160 1496,-160 2279.7174,-160 2279.7174,-160"/>
<polygon fill="#000000" stroke="#000000" points="2279.7174,-163.5001 2289.7174,-160 2279.7173,-156.5001 2279.7174,-163.5001"/>
</g>
<!-- SharedModule -->
<g id="node19" class="node">
<title>SharedModule</title>
<polygon fill="#8dd3c7" stroke="#000000" points="1403.4231,-122 1400.4231,-126 1379.4231,-126 1376.4231,-122 1304.5769,-122 1304.5769,-86 1403.4231,-86 1403.4231,-122"/>
<text text-anchor="middle" x="1354" y="-99.8" font-family="Times,serif" font-size="14.00" fill="#000000">SharedModule</text>
</g>
<!-- SharedModule&#45;&gt;StreamsModule -->
<g id="edge18" class="edge">
<title>SharedModule&#45;&gt;StreamsModule</title>
<path fill="none" stroke="#000000" d="M1354,-122.0225C1354,-139.3734 1354,-163 1354,-163 1354,-163 2279.5784,-163 2279.5784,-163"/>
<polygon fill="#000000" stroke="#000000" points="2279.5784,-166.5001 2289.5784,-163 2279.5784,-159.5001 2279.5784,-166.5001"/>
</g>
<!-- AppsModule -->
<g id="node20" class="node">
<title>AppsModule</title>
<polygon fill="#8dd3c7" stroke="#000000" points="1286.6011,-122 1283.6011,-126 1262.6011,-126 1259.6011,-122 1197.3989,-122 1197.3989,-86 1286.6011,-86 1286.6011,-122"/>
<text text-anchor="middle" x="1242" y="-99.8" font-family="Times,serif" font-size="14.00" fill="#000000">AppsModule</text>
</g>
<!-- AppsModule&#45;&gt;StreamsModule -->
<g id="edge19" class="edge">
<title>AppsModule&#45;&gt;StreamsModule</title>
<path fill="none" stroke="#000000" d="M1242,-122.302C1242,-140.2699 1242,-165 1242,-165 1242,-165 2279.6847,-165 2279.6847,-165"/>
<polygon fill="#000000" stroke="#000000" points="2279.6848,-168.5001 2289.6847,-165 2279.6847,-161.5001 2279.6848,-168.5001"/>
</g>
<!-- AuthModule -->
<g id="node21" class="node">
<title>AuthModule</title>
<polygon fill="#8dd3c7" stroke="#000000" points="1179.5482,-122 1176.5482,-126 1155.5482,-126 1152.5482,-122 1092.4518,-122 1092.4518,-86 1179.5482,-86 1179.5482,-122"/>
<text text-anchor="middle" x="1136" y="-99.8" font-family="Times,serif" font-size="14.00" fill="#000000">AuthModule</text>
</g>
<!-- AuthModule&#45;&gt;StreamsModule -->
<g id="edge20" class="edge">
<title>AuthModule&#45;&gt;StreamsModule</title>
<path fill="none" stroke="#000000" d="M1136,-122.1686C1136,-141.0898 1136,-168 1136,-168 1136,-168 2279.7926,-168 2279.7926,-168"/>
<polygon fill="#000000" stroke="#000000" points="2279.7926,-171.5001 2289.7926,-168 2279.7926,-164.5001 2279.7926,-171.5001"/>
</g>
<!-- StreamsService -->
<g id="node22" class="node">
<title>StreamsService</title>
<ellipse fill="#fdb462" stroke="#000000" cx="997" cy="-104" rx="71.1998" ry="18"/>
<text text-anchor="middle" x="997" y="-99.8" font-family="Times,serif" font-size="14.00" fill="#000000">StreamsService</text>
</g>
<!-- StreamsService&#45;&gt;StreamsModule -->
<g id="edge21" class="edge">
<title>StreamsService&#45;&gt;StreamsModule</title>
<path fill="none" stroke="#000000" d="M997,-122.308C997,-142.1455 997,-171 997,-171 997,-171 2279.6872,-171 2279.6872,-171"/>
<polygon fill="#000000" stroke="#000000" points="2279.6872,-174.5001 2289.6872,-171 2279.6872,-167.5001 2279.6872,-174.5001"/>
</g>
<!-- MetamodelService -->
<g id="node23" class="node">
<title>MetamodelService</title>
<ellipse fill="#fdb462" stroke="#000000" cx="824" cy="-104" rx="83.945" ry="18"/>
<text text-anchor="middle" x="824" y="-99.8" font-family="Times,serif" font-size="14.00" fill="#000000">MetamodelService</text>
</g>
<!-- MetamodelService&#45;&gt;StreamsModule -->
<g id="edge22" class="edge">
<title>MetamodelService&#45;&gt;StreamsModule</title>
<path fill="none" stroke="#000000" d="M824,-122.0267C824,-142.7672 824,-174 824,-174 824,-174 2279.747,-174 2279.747,-174"/>
<polygon fill="#000000" stroke="#000000" points="2279.747,-177.5001 2289.747,-174 2279.747,-170.5001 2279.747,-177.5001"/>
</g>
<!-- RenderService -->
<g id="node24" class="node">
<title>RenderService</title>
<ellipse fill="#fdb462" stroke="#000000" cx="654" cy="-104" rx="67.7548" ry="18"/>
<text text-anchor="middle" x="654" y="-99.8" font-family="Times,serif" font-size="14.00" fill="#000000">RenderService</text>
</g>
<!-- RenderService&#45;&gt;StreamsModule -->
<g id="edge23" class="edge">
<title>RenderService&#45;&gt;StreamsModule</title>
<path fill="none" stroke="#000000" d="M654,-122.1686C654,-143.498 654,-176 654,-176 654,-176 2279.6305,-176 2279.6305,-176"/>
<polygon fill="#000000" stroke="#000000" points="2279.6306,-179.5001 2289.6305,-176 2279.6305,-172.5001 2279.6306,-179.5001"/>
</g>
<!-- EditorService -->
<g id="node25" class="node">
<title>EditorService</title>
<ellipse fill="#fdb462" stroke="#000000" cx="504" cy="-104" rx="64.261" ry="18"/>
<text text-anchor="middle" x="504" y="-99.8" font-family="Times,serif" font-size="14.00" fill="#000000">EditorService</text>
</g>
<!-- EditorService&#45;&gt;StreamsModule -->
<g id="edge24" class="edge">
<title>EditorService&#45;&gt;StreamsModule</title>
<path fill="none" stroke="#000000" d="M504,-122.1554C504,-144.3519 504,-179 504,-179 504,-179 2279.4647,-179 2279.4647,-179"/>
<polygon fill="#000000" stroke="#000000" points="2279.4648,-182.5001 2289.4647,-179 2279.4647,-175.5001 2279.4648,-182.5001"/>
</g>
<!-- ContentAssistService -->
<g id="node26" class="node">
<title>ContentAssistService</title>
<ellipse fill="#fdb462" stroke="#000000" cx="328" cy="-104" rx="94.3543" ry="18"/>
<text text-anchor="middle" x="328" y="-99.8" font-family="Times,serif" font-size="14.00" fill="#000000">ContentAssistService</text>
</g>
<!-- ContentAssistService&#45;&gt;StreamsModule -->
<g id="edge25" class="edge">
<title>ContentAssistService&#45;&gt;StreamsModule</title>
<path fill="none" stroke="#000000" d="M328,-122.0908C328,-145.1328 328,-182 328,-182 328,-182 2279.6797,-182 2279.6797,-182"/>
<polygon fill="#000000" stroke="#000000" points="2279.6798,-185.5001 2289.6797,-182 2279.6797,-178.5001 2279.6798,-185.5001"/>
</g>
<!-- StreamDeployService -->
<g id="node27" class="node">
<title>StreamDeployService</title>
<ellipse fill="#fdb462" stroke="#000000" cx="120" cy="-104" rx="95.5433" ry="18"/>
<text text-anchor="middle" x="120" y="-99.8" font-family="Times,serif" font-size="14.00" fill="#000000">StreamDeployService</text>
</g>
<!-- StreamDeployService&#45;&gt;StreamsModule -->
<g id="edge26" class="edge">
<title>StreamDeployService&#45;&gt;StreamsModule</title>
<path fill="none" stroke="#000000" d="M120,-122.3802C120,-146.2785 120,-185 120,-185 120,-185 2279.8069,-185 2279.8069,-185"/>
<polygon fill="#000000" stroke="#000000" points="2279.8069,-188.5001 2289.8069,-185 2279.8068,-181.5001 2279.8069,-188.5001"/>
</g>
</g>
</svg>
